<svg width="174" height="32" viewBox="0 0 174 32" fill="none" xmlns="http://www.w3.org/2000/svg">
<g clip-path="url(#clip0_1277_16741)">
<path fill-rule="evenodd" clip-rule="evenodd" d="M153.523 25.1434C154.624 25.1434 155.266 25.4646 155.587 25.694C155.817 25.8317 156.046 26.0152 156.23 26.2446C156.734 26.8411 156.964 27.7128 156.964 28.4928C156.964 29.6399 156.459 30.787 155.404 31.3375C155.174 31.4752 154.853 31.6128 154.303 31.7046C153.89 31.7964 153.614 31.7964 153.431 31.7964C153.247 31.7964 152.33 31.7505 151.687 31.4752C150.448 30.9246 149.898 29.7317 149.898 28.447C149.898 27.0246 150.586 26.2446 150.999 25.8775C151.458 25.6023 152.284 25.1434 153.523 25.1434ZM119.019 25.1434C120.12 25.1434 120.763 25.4646 121.084 25.694C121.313 25.8317 121.543 26.0152 121.726 26.2446C122.231 26.8411 122.46 27.7128 122.46 28.4928C122.46 29.6399 121.956 30.787 120.9 31.3375C120.671 31.4752 120.35 31.6128 119.799 31.7046C119.386 31.7964 119.111 31.7964 118.927 31.7964C118.744 31.7964 117.826 31.7505 117.184 31.4752C115.945 30.9246 115.394 29.7317 115.394 28.447C115.394 27.0246 116.083 26.2446 116.496 25.8775C116.908 25.6023 117.734 25.1434 119.019 25.1434ZM132.233 25.327V28.7681C132.233 29.0434 132.233 29.3646 132.325 29.594C132.463 30.007 132.876 30.7411 134.023 30.7411C134.803 30.7411 135.216 30.4199 135.399 30.1905C135.812 29.7317 135.812 29.1811 135.812 28.6305V25.327H137.143V28.5846C137.143 28.7223 137.143 28.814 137.143 28.9517C137.143 29.2728 137.097 30.1446 136.454 30.8328C136.225 31.0622 135.95 31.2917 135.628 31.4293C135.261 31.567 134.894 31.6587 134.757 31.6587C134.665 31.6587 134.298 31.7505 133.977 31.7505C133.793 31.7505 133.518 31.7505 133.38 31.7046C133.105 31.6587 132.141 31.567 131.499 30.8328C131.361 30.6952 131.132 30.4199 130.994 29.9611C130.857 29.5023 130.811 28.9975 130.811 28.5387V25.2811H132.233V25.327ZM170.866 25.1434C171.05 25.1434 171.233 25.1434 171.417 25.1893C171.646 25.1893 172.38 25.2352 173.023 25.7399C173.344 25.9693 173.435 26.1987 173.527 26.3364C173.665 26.6575 173.711 26.9787 173.711 27.3458H172.472C172.472 27.0246 172.426 26.887 172.38 26.7493C172.105 26.1528 171.233 26.107 171.004 26.107H170.958C170.591 26.107 169.994 26.1987 169.673 26.3823C169.581 26.4281 169.306 26.6117 169.306 26.9787C169.306 27.1164 169.352 27.3458 169.627 27.4834C169.857 27.5752 170.27 27.667 170.499 27.667L171.875 27.8505C172.059 27.8964 172.243 27.8964 172.426 27.9881C173.298 28.2175 173.619 28.7223 173.757 29.0893C173.803 29.1811 173.848 29.4105 173.848 29.7317C173.848 30.9705 172.747 31.4293 172.426 31.567C172.059 31.7046 171.738 31.7505 171.417 31.7505C171.187 31.7964 170.912 31.7964 170.683 31.7964C169.765 31.7964 168.526 31.6128 168.021 30.7411C167.792 30.374 167.746 30.007 167.7 29.5481H168.985C168.985 29.6399 168.985 29.9152 169.168 30.1446C169.352 30.4658 169.857 30.787 170.728 30.787C170.82 30.787 171.646 30.787 172.105 30.5117C172.197 30.4658 172.288 30.374 172.334 30.2823C172.472 30.0987 172.472 29.9611 172.472 29.8693C172.472 29.6858 172.38 29.5023 172.334 29.4564C172.151 29.1811 171.692 29.1352 171.417 29.0893L169.811 28.8599C169.535 28.814 169.26 28.7681 169.031 28.6764C168.71 28.5387 167.93 28.1717 167.93 27.1164C167.93 26.5199 168.251 26.1528 168.388 25.9693C168.801 25.5564 169.535 25.1434 170.866 25.1434ZM110.668 25.1434C110.852 25.1434 111.036 25.1434 111.219 25.1893H111.311C111.586 25.1893 112.274 25.2811 112.825 25.7399C113.146 25.9693 113.238 26.1987 113.33 26.3364C113.467 26.6575 113.467 26.9787 113.513 27.3458H112.274C112.274 27.0246 112.228 26.887 112.183 26.7493C111.907 26.1528 111.036 26.107 110.806 26.107H110.76C110.393 26.107 109.797 26.1987 109.476 26.3823C109.384 26.4281 109.108 26.6117 109.108 26.9787C109.108 27.1164 109.154 27.3458 109.43 27.4834C109.659 27.5752 110.072 27.667 110.301 27.667L111.678 27.8505C111.861 27.8964 112.045 27.8964 112.228 27.9881C113.1 28.2175 113.421 28.7223 113.559 29.0893C113.605 29.1811 113.651 29.4105 113.651 29.7317C113.651 30.9705 112.55 31.4293 112.228 31.567C111.861 31.7046 111.54 31.7505 111.219 31.7505C110.99 31.7964 110.714 31.7964 110.485 31.7964C109.567 31.7964 108.328 31.6128 107.824 30.7411C107.594 30.374 107.548 30.007 107.503 29.5481H108.787C108.787 29.6399 108.787 29.9152 108.925 30.1446C109.108 30.4658 109.613 30.787 110.485 30.787C110.577 30.787 111.403 30.787 111.861 30.5117C111.953 30.4658 112.045 30.374 112.091 30.2823C112.228 30.0987 112.228 29.9611 112.228 29.8693C112.228 29.6858 112.137 29.5023 112.091 29.4564C111.907 29.1811 111.448 29.1352 111.173 29.0893L109.659 28.814C109.384 28.7681 109.108 28.7223 108.879 28.6305C108.558 28.4928 107.778 28.1258 107.778 27.0705C107.778 26.474 108.099 26.107 108.237 25.9234C108.65 25.5564 109.384 25.1434 110.668 25.1434ZM62.2168 25.1893C62.3544 25.1893 63.4556 25.1893 64.1438 25.6023C64.2356 25.6481 64.4191 25.7858 64.5568 25.9234C64.6485 26.0152 64.7862 26.1987 64.9238 26.4281C65.0615 26.7493 65.1532 27.2081 65.1532 27.2999H63.7768C63.7768 27.2081 63.7768 27.0246 63.6391 26.8411C63.5015 26.5658 62.9509 26.1528 62.0791 26.1528C61.8497 26.1528 61.5744 26.1987 61.345 26.2446C60.2897 26.5199 59.8768 27.3458 59.8768 28.4011C59.8768 28.6305 59.8768 29.5023 60.4274 30.1446C60.7944 30.5575 61.3909 30.6952 61.9415 30.6952C62.4462 30.6952 63.0885 30.5575 63.4556 30.1905C63.6391 29.9611 63.685 29.7317 63.7768 29.5023H65.1074C65.1074 29.6858 65.0615 30.1446 64.7862 30.6034C64.6485 30.8328 64.3732 31.1081 63.8227 31.3834C63.2721 31.6587 62.6756 31.7505 62.0332 31.7505C61.7121 31.7505 60.7485 31.7505 59.8768 31.1999C58.9132 30.6034 58.5921 29.594 58.5921 28.4928C58.5921 27.7587 58.7756 27.254 58.8674 26.9787C59.1427 26.3364 59.7391 25.4646 61.345 25.2352H61.3909C61.6203 25.2352 61.9415 25.1893 62.2168 25.1893ZM38.5874 25.3728C38.6792 25.694 38.7709 26.0152 38.8627 26.2905C38.9544 26.7034 39.0462 27.0705 39.1839 27.4834C39.3215 27.9881 39.4592 28.5387 39.5968 29.0434C39.6427 29.2728 39.7344 29.5481 39.7803 29.7775C39.8262 30.0528 39.8721 30.2822 39.918 30.5575C39.9639 30.2822 40.0097 30.007 40.1015 29.7317C40.1474 29.5023 40.2392 29.3187 40.285 29.0893L41.2944 25.327H42.9921C43.0839 25.694 43.1756 26.0611 43.2674 26.3823C43.405 26.887 43.4968 27.3458 43.6344 27.8505C43.7721 28.4011 43.9097 28.9058 44.0474 29.4564L44.3227 30.5575L44.598 29.4564L45.6533 25.3728H46.8921L46.0662 28.2175C45.8827 28.8599 45.6991 29.5481 45.5156 30.1905C45.378 30.6952 45.2403 31.154 45.0568 31.6128H43.4968L42.3497 27.3458L42.1203 26.2905L41.9368 27.2081L40.8356 31.567H39.1839L38.2203 28.4928L37.165 25.3728H38.5874ZM86.3509 25.3728C86.8556 26.4281 87.4062 27.4834 87.9109 28.5387C88.232 29.227 88.5991 29.9152 88.9203 30.6034L89.425 31.6587H88.0026L87.3603 30.2823H83.5521L82.8638 31.6587H81.4415L84.6532 25.4187H86.3509V25.3728ZM125.856 25.3728V30.6034H129.434V31.6587H124.525V25.3728H125.856ZM53.178 25.3728V26.3823H49.6909V27.8046H53.0403V28.814H49.6909V30.5575H53.3615V31.567H48.3144V25.3728H53.178ZM158.983 25.327H161.047C161.323 25.7399 161.644 26.1528 161.919 26.5658C162.057 26.7952 162.24 27.0246 162.378 27.2999C162.607 27.6211 162.837 27.9423 163.02 28.2634C163.25 28.6305 163.479 28.9975 163.708 29.3646L164.443 30.5575L164.397 29.5023V25.3728H165.498V31.6128H163.708C163.433 31.1999 163.158 30.787 162.883 30.374C162.607 29.9611 162.332 29.5481 162.057 29.1352C161.781 28.7223 161.46 28.3093 161.185 27.8964C161.001 27.667 160.864 27.3917 160.68 27.1623L160.084 26.1987L160.13 27.2999V31.6587H158.937V25.327H158.983ZM145.126 25.327V26.3823H142.511V31.567H141.18V26.3823H138.565V25.327H145.126ZM102.134 25.3728V26.3823H98.6473V27.8046H101.997V28.814H98.6473V30.5575H102.318V31.567H97.2709V25.3728H102.134ZM95.7567 25.327V26.3823H93.1414V31.567H91.8109V26.3823H89.1956V25.327H95.7567ZM79.9732 25.3728V26.3823H76.4862V27.8046H79.8356V28.814H76.4862V30.5575H80.1568V31.567H75.1097V25.3728H79.9732ZM147.971 25.3728V31.6128H146.64V25.3728H147.971ZM69.9709 25.327C70.6132 25.327 71.3015 25.327 71.8521 25.6481C72.0815 25.7858 72.7238 26.1528 72.7238 26.9787C72.7238 27.7128 72.265 28.1258 72.0356 28.2634C71.8062 28.4011 71.4391 28.5387 71.3932 28.5387C71.8979 28.7223 72.0815 28.814 72.265 28.9975C72.4485 29.227 72.4944 29.4564 72.5403 29.6858V29.7775L72.6779 31.1081C72.7238 31.2917 72.7238 31.3375 72.8156 31.4752L72.8615 31.5211H71.4391C71.3015 31.0622 71.3015 30.9246 71.3015 30.6952V30.6493L71.2556 30.1905C71.2556 30.1446 71.2097 29.9152 71.1638 29.7317C70.9803 29.1811 70.4756 29.1352 69.9709 29.1352H68.1815V31.6128H66.805V25.327H69.9709ZM153.523 26.1528C153.201 26.1528 152.33 26.1987 151.733 26.9328C151.55 27.2081 151.274 27.6211 151.274 28.4011C151.274 28.9517 151.412 29.594 151.779 30.0528C151.963 30.3281 152.513 30.8328 153.431 30.8328C153.981 30.8328 154.578 30.6952 154.945 30.3281C155.22 30.0987 155.679 29.5023 155.679 28.5387C155.679 28.034 155.541 27.4834 155.312 27.0705C155.083 26.6575 154.532 26.1528 153.523 26.1528ZM119.019 26.1528C118.698 26.1528 117.826 26.1987 117.23 26.9328C117.046 27.2081 116.771 27.6211 116.771 28.4011C116.771 28.9517 116.908 29.594 117.276 30.0528C117.459 30.3281 118.01 30.8328 118.927 30.8328C119.478 30.8328 120.074 30.6952 120.441 30.3281C120.717 30.0987 121.176 29.5023 121.176 28.5387C121.176 28.034 121.038 27.4834 120.808 27.0705C120.579 26.6575 120.028 26.1528 119.019 26.1528ZM85.4332 26.2905L83.965 29.227H86.8097L85.4332 26.2905ZM69.9709 26.3823H68.2732V28.1258H70.2003C70.6132 28.0799 70.9803 28.0799 71.2556 27.7587C71.4391 27.5293 71.4391 27.3458 71.4391 27.2081C71.4391 27.0246 71.3932 26.7034 70.9803 26.5199C70.7509 26.4281 70.4756 26.3823 69.9709 26.3823Z" fill="#27166F"/>
<path fill-rule="evenodd" clip-rule="evenodd" d="M159.763 2.66113L168.159 13.0764V2.66113H173.39V20.0964H168.159L159.671 9.58936V20.0964H154.44V2.66113H159.763ZM150.448 2.66113V20.0964H144.484V2.66113H150.448ZM135.996 2.66113V16.6552H142.465V20.0964H130.031V2.66113H135.996ZM126.268 2.66113V6.10231H118.285V9.63524H125.764V13.0764H118.285V16.5635H126.773V20.0964H112.32V2.66113H126.268ZM72.0356 2.66113V6.10231H64.0521V9.63524H71.5309V13.0764H64.0521V16.5635H72.5403V20.0964H58.0874V2.66113H72.0356ZM54.6003 2.66113V6.05642L45.1486 16.6552H54.6003V20.0964H37.165V16.6552L46.4791 6.05642H37.6697V2.66113H54.6003ZM100.574 2.66113C101.125 2.66113 103.97 2.70702 105.3 3.16584C108.604 4.22113 109.934 6.65289 109.934 9.26818C109.934 11.7917 108.42 14.2694 105.438 15.3705C104.291 15.7835 102.685 15.967 101.767 15.967C101.446 15.967 100.896 15.967 100.299 15.967H100.161V20.0964H94.0591V2.66113H97.9591H100.574ZM82.405 2.66113C82.9556 2.66113 85.8003 2.70702 87.1309 3.16584C90.4344 4.22113 91.765 6.65289 91.765 9.26818C91.765 11.7917 90.2509 14.2694 87.2685 15.3705C86.1215 15.7835 84.4697 15.967 83.5979 15.967C83.2767 15.967 82.7262 15.967 82.1297 15.967H81.992V20.0964H75.8897V2.66113H79.7897H82.405ZM101.308 6.19407H101.217C101.171 6.19407 101.171 6.19407 101.171 6.19407H100.207V12.2505H101.171C101.354 12.2505 102.777 12.2047 103.419 11.5623C104.107 10.8741 104.153 10.0482 104.153 9.08466C104.153 8.07524 103.924 7.20348 103.006 6.60701C102.547 6.23995 101.63 6.19407 101.308 6.19407ZM83.0932 6.19407H83.0015C82.9556 6.19407 82.9556 6.19407 82.9556 6.19407H81.992V12.2505H82.9556C83.1391 12.2505 84.5615 12.2047 85.2038 11.5623C85.892 10.8741 85.9379 10.0482 85.9379 9.08466C85.9379 8.07524 85.7085 7.20348 84.7909 6.60701C84.3779 6.23995 83.4603 6.19407 83.0932 6.19407Z" fill="#27166F"/>
<path fill-rule="evenodd" clip-rule="evenodd" d="M12.6635 14.1776L7.06588 20.5093V25.6023H19.9588V32.0258H0V14.1776H12.6635ZM27.0706 2.66113V20.5093H14.407L19.9588 14.2235V9.08466H7.06588V2.66113H27.0706Z" fill="#27166F"/>
</g>
<defs>
<clipPath id="clip0_1277_16741">
<rect width="173.924" height="32" fill="white"/>
</clipPath>
</defs>
</svg>
